<svg xmlns="http://www.w3.org/2000/svg" viewBox="0 0 512 512">
  <defs>
    <linearGradient id="bg" x1="0%" y1="0%" x2="100%" y2="100%">
      <stop offset="0%" style="stop-color:#6c5ce7"/>
      <stop offset="100%" style="stop-color:#a29bfe"/>
    </linearGradient>
  </defs>
  <rect width="512" height="512" rx="96" fill="url(#bg)"/>
  <!-- Receipt/Document icon -->
  <rect x="150" y="80" width="212" height="290" rx="16" fill="white" opacity="0.95"/>
  <rect x="180" y="120" width="100" height="8" rx="4" fill="#6c5ce7" opacity="0.3"/>
  <rect x="180" y="145" width="152" height="6" rx="3" fill="#6c5ce7" opacity="0.2"/>
  <rect x="180" y="165" width="152" height="6" rx="3" fill="#6c5ce7" opacity="0.2"/>
  <rect x="180" y="185" width="120" height="6" rx="3" fill="#6c5ce7" opacity="0.2"/>
  <rect x="180" y="210" width="152" height="6" rx="3" fill="#6c5ce7" opacity="0.15"/>
  <rect x="180" y="230" width="152" height="6" rx="3" fill="#6c5ce7" opacity="0.15"/>
  <rect x="180" y="255" width="80" height="8" rx="4" fill="#6c5ce7" opacity="0.3"/>
  <rect x="280" y="255" width="52" height="8" rx="4" fill="#00cec9" opacity="0.6"/>
  <rect x="180" y="280" width="152" height="6" rx="3" fill="#6c5ce7" opacity="0.15"/>
  <rect x="180" y="300" width="152" height="6" rx="3" fill="#6c5ce7" opacity="0.15"/>
  <rect x="180" y="325" width="80" height="10" rx="5" fill="#6c5ce7" opacity="0.4"/>
  <rect x="275" y="325" width="57" height="10" rx="5" fill="#00cec9" opacity="0.8"/>
  <!-- Scan/AI sparkle -->
  <circle cx="370" cy="380" r="72" fill="#0a0a14" opacity="0.9"/>
  <circle cx="370" cy="380" r="56" fill="none" stroke="white" stroke-width="4" opacity="0.9"/>
  <!-- AI Brain/Sparkle icon -->
  <path d="M355 365 L370 355 L385 365 L380 382 L360 382 Z" fill="white" opacity="0.9"/>
  <circle cx="370" cy="375" r="6" fill="#6c5ce7"/>
  <line x1="370" y1="355" x2="370" y2="345" stroke="white" stroke-width="3" stroke-linecap="round"/>
  <line x1="385" y1="365" x2="393" y2="358" stroke="white" stroke-width="3" stroke-linecap="round"/>
  <line x1="355" y1="365" x2="347" y2="358" stroke="white" stroke-width="3" stroke-linecap="round"/>
  <line x1="380" y1="382" x2="388" y2="392" stroke="white" stroke-width="3" stroke-linecap="round"/>
  <line x1="360" y1="382" x2="352" y2="392" stroke="white" stroke-width="3" stroke-linecap="round"/>
  <!-- Bottom text -->
  <text x="256" y="450" text-anchor="middle" font-family="Arial,sans-serif" font-size="42" font-weight="bold" fill="white" opacity="0.95">BILLY</text>
  <text x="256" y="485" text-anchor="middle" font-family="Arial,sans-serif" font-size="22" font-weight="500" fill="white" opacity="0.7">MEMBACA</text>
</svg>
